<?xml version="1.0" encoding="utf-8"?>
<!-- Generator: Adobe Illustrator 16.0.0, SVG Export Plug-In . SVG Version: 6.00 Build 0)  -->
<!DOCTYPE svg PUBLIC "-//W3C//DTD SVG 1.1 Tiny//EN" "http://www.w3.org/Graphics/SVG/1.1/DTD/svg11-tiny.dtd">
<svg version="1.1" baseProfile="tiny" id="Layer_1" xmlns="http://www.w3.org/2000/svg" xmlns:xlink="http://www.w3.org/1999/xlink"
	 x="0px" y="0px" width="150px" height="44.097px" viewBox="0 0 150 44.097" xml:space="preserve">
<g>
	<path fill-rule="evenodd" d="M39.652,0c0.136,0.075,0.29,0.093,0.437,0.13c2.178,0.55,3.813,2.405,4.078,4.634
		c0.022,0.186,0.021,0.375,0.021,0.563c0,11.158-0.005,22.315,0.005,33.474c0.002,2.246-1.556,4.493-3.961,5.163
		c-0.146,0.041-0.292,0.088-0.438,0.133c-11.806,0-23.612,0-35.418,0c-0.088-0.032-0.174-0.069-0.264-0.095
		c-2.097-0.6-3.418-1.958-3.976-4.063C0.102,39.815,0.081,39.687,0,39.582C0,27.892,0,16.204,0,4.515
		c0.103-0.094,0.111-0.228,0.145-0.352c0.584-2.166,1.967-3.521,4.138-4.077C4.385,0.061,4.485,0.029,4.586,0
		C16.274,0,27.963,0,39.652,0z M13.536,27.522c0.009,0.022,0.028,0.045,0.025,0.063c-0.009,0.045-0.025,0.091-0.045,0.133
		c-0.325,0.684-0.52,1.409-0.664,2.15c-0.115,0.588-0.226,1.177-0.352,1.763c-0.136,0.635-0.33,1.247-0.678,1.806
		c-0.448,0.721-1.62,1.453-2.801,1.032c-0.321-0.114-0.646-0.217-0.97-0.323c-0.258-0.086-0.521-0.134-0.795-0.143
		c-0.424-0.015-0.749,0.158-1.003,0.487c-0.193,0.25-0.19,0.299,0.069,0.466c0.605,0.392,1.243,0.718,1.937,0.92
		c1.868,0.543,3.539,0.171,4.984-1.127c1.247-1.118,1.923-2.561,2.257-4.178c0.101-0.484,0.154-0.975,0.159-1.47
		c0.001-0.145,0.013-0.282,0.148-0.376c0.435-0.302,0.869-0.605,1.372-0.789c0.144-0.053,0.292-0.094,0.448-0.073
		c0.263,0.034,0.324,0.158,0.166,0.377c-0.283,0.392-0.528,0.806-0.747,1.236c-0.919,1.81-1.555,3.701-1.684,5.744
		c-0.048,0.772,0.009,1.527,0.277,2.256c0.659,1.791,2.85,2.462,4.4,1.35c0.491-0.353,0.901-0.791,1.289-1.249
		c0.653-0.771,1.223-1.61,1.939-2.33c0.139-0.14,0.123-0.202-0.065-0.278c-0.636-0.255-1.261-0.26-1.86,0.109
		c-0.281,0.174-0.529,0.39-0.769,0.617c-0.238,0.227-0.479,0.45-0.729,0.664c-0.279,0.238-0.582,0.439-0.935,0.555
		c-0.45,0.146-0.551,0.099-0.713-0.34c-0.298-0.806-0.35-1.628-0.137-2.46c0.458-1.796,1.618-3.131,2.907-4.375
		c0.134-0.13,0.207-0.103,0.272,0.095c0.201,0.606,0.604,1.055,1.104,1.427c0.216,0.161,0.443,0.311,0.673,0.451
		c0.563,0.345,1.167,0.61,1.75,0.914c0.594,0.311,1.186,0.621,1.714,1.043c0.667,0.531,0.992,1.201,0.916,2.061
		c-0.04,0.445-0.208,0.819-0.565,1.093c-0.224,0.172-0.459,0.327-0.69,0.49c-0.335,0.235-0.591,0.537-0.757,0.911
		c-0.128,0.289-0.107,0.34,0.201,0.411c1.125,0.261,2.082-0.035,2.812-0.931c0.839-1.031,1.064-2.241,0.987-3.544
		c-0.044-0.754-0.376-1.298-0.952-1.76c-0.606-0.485-1.248-0.923-1.841-1.423c-0.556-0.469-1.017-1.011-1.3-1.688
		c-0.048-0.115-0.12-0.228-0.088-0.356c0.085-0.031,0.128,0.011,0.167,0.053c0.45,0.482,1.022,0.74,1.645,0.909
		c0.868,0.235,1.759,0.298,2.65,0.356c0.915,0.06,1.831,0.09,2.739,0.22c0.642,0.091,1.274,0.226,1.862,0.516
		c0.094,0.046,0.188,0.097,0.274,0.157c0.099,0.07,0.109,0.153-0.007,0.219c-0.192,0.106-0.315,0.278-0.439,0.45
		c-0.099,0.138-0.217,0.263-0.382,0.298c-0.547,0.116-1.078,0.128-1.501-0.333c-0.151-0.165-0.302-0.33-0.46-0.487
		c-0.212-0.211-0.478-0.298-0.771-0.283c-0.287,0.015-0.375,0.105-0.405,0.387c-0.047,0.444,0.077,0.838,0.361,1.181
		c0.237,0.286,0.531,0.512,0.875,0.638c1.515,0.555,2.983,0.64,4.309-0.494c0.145-0.124,0.214-0.106,0.282,0.079
		c0.098,0.267,0.145,0.543,0.118,0.83c-0.039,0.409-0.136,0.812-0.116,1.227c0.008,0.165,0.015,0.327,0.08,0.484
		s0.161,0.209,0.332,0.166c0.468-0.117,0.838-0.36,1.068-0.795c0.18-0.34,0.26-0.704,0.274-1.084c0.03-0.827-0.154-1.61-0.479-2.365
		c-0.225-0.522-0.493-1.021-0.938-1.391c-0.193-0.161-0.218-0.327-0.171-0.558c0.186-0.896,0.061-1.755-0.386-2.557
		c-0.3-0.538-0.696-1.001-1.169-1.4c-0.607-0.514-1.29-0.899-2.012-1.224c-0.293-0.131-0.301-0.164-0.083-0.384
		c0.306-0.31,0.617-0.613,0.934-0.913c1.267-1.197,2.726-1.985,4.494-2.143c0.455-0.041,0.864,0.024,1.249,0.26
		c0.18,0.111,0.359,0.225,0.543,0.328c0.165,0.092,0.339,0.165,0.537,0.145c0.308-0.031,0.436-0.171,0.437-0.479
		c0.002-0.655-0.306-1.127-0.906-1.381c-0.36-0.152-0.741-0.224-1.125-0.288c-0.591-0.098-1.192-0.139-1.77-0.311
		c-0.262-0.078-0.288-0.141-0.16-0.375c0.125-0.23,0.297-0.421,0.504-0.583c0.39-0.306,0.819-0.55,1.254-0.784
		c0.374-0.2,0.746-0.402,1.051-0.704c0.126-0.125,0.244-0.257,0.294-0.432c0.094-0.325-0.012-0.481-0.349-0.471
		c-0.485,0.015-0.958,0.101-1.403,0.306c-0.407,0.187-0.789,0.416-1.152,0.679c-0.466,0.338-0.93,0.682-1.409,1
		c-0.86,0.572-1.805,0.848-2.843,0.738c-0.526-0.056-1.044-0.169-1.559-0.289c-0.804-0.186-1.613-0.318-2.444-0.276
		c-0.469,0.023-0.903,0.141-1.306,0.378c-0.203,0.12-0.4,0.248-0.604,0.364c-0.288,0.164-0.588,0.299-0.92,0.339
		c-0.253,0.03-0.292,0.003-0.313-0.249c-0.02-0.237-0.054-0.471-0.172-0.678c-0.093-0.163-0.077-0.313-0.004-0.47
		c0.139-0.302,0.312-0.58,0.551-0.813c0.27-0.262,0.545-0.519,0.807-0.79c0.398-0.413,0.664-1.171,0.153-1.871
		c-0.167-0.229-0.337-0.453-0.528-0.661c-0.641-0.703-1.131-1.5-1.492-2.378c-0.237-0.577-0.436-1.167-0.595-1.771
		C24.26,7.617,24.05,6.02,23.847,4.423c-0.036-0.283-0.154-0.449-0.39-0.574c-0.271-0.144-0.379-0.135-0.58,0.097
		c-0.346,0.4-0.691,0.801-1.03,1.207c-1.567,1.88-3.067,3.81-4.394,5.869c-0.644,1-1.234,2.026-1.667,3.141
		c-0.421,1.082-0.336,2.09,0.329,3.048c0.255,0.367,0.527,0.722,0.798,1.077c0.669,0.876,1.189,1.803,1.104,2.968
		c-0.043,0.59-0.052,0.618-0.633,0.536c-1.153-0.164-2.19,0.115-3.115,0.823c-0.564,0.433-1.027,0.964-1.478,1.508
		c-0.45,0.543-0.891,1.094-1.351,1.629c-0.598,0.694-1.303,1.252-2.154,1.613c-0.351,0.148-0.673,0.192-1.039-0.007
		c-0.442-0.24-0.925-0.407-1.411-0.549c-0.712-0.206-1.426-0.393-2.183-0.274c-0.72,0.113-1.181,0.572-1.29,1.296
		c-0.024,0.163,0.026,0.27,0.146,0.366c0.134,0.107,0.283,0.159,0.455,0.166c0.239,0.008,0.466-0.051,0.693-0.113
		c0.283-0.078,0.565-0.16,0.852-0.226c0.273-0.063,0.517-0.031,0.755,0.164c0.492,0.402,1.075,0.616,1.698,0.733
		c0.561,0.105,1.125,0.111,1.687,0.063c1.361-0.117,2.623-0.521,3.708-1.388C13.408,27.555,13.452,27.487,13.536,27.522z"/>
	<path fill-rule="evenodd" d="M150,20.884c-1.081,0.004-2.163,0.003-3.243,0.016c-0.241,0.003-0.358-0.127-0.466-0.309
		c-0.459-0.78-0.923-1.557-1.386-2.334c-1.983-3.333-3.967-6.665-5.951-9.998c-0.053-0.087-0.093-0.185-0.206-0.26
		c-0.054,0.156-0.033,0.295-0.033,0.431c-0.001,3.961-0.001,7.922-0.001,11.884c0,0.583-0.001,0.583-0.581,0.583
		c-0.905,0-1.81,0-2.715,0c-0.106,0-0.212-0.001-0.317-0.008c-0.14-0.008-0.212-0.087-0.215-0.227
		c-0.002-0.094-0.005-0.188-0.005-0.282c0-6.665,0-13.329,0.001-19.994c0-0.129,0.013-0.258,0.02-0.386c1.199,0,2.398,0,3.599,0
		c0.182,0.301,0.367,0.601,0.547,0.903c2.333,3.917,4.665,7.833,6.997,11.75c0.046,0.076,0.067,0.176,0.217,0.215
		c0-4.3,0-8.584,0-12.868c1.246,0,2.492,0,3.739,0C150,6.961,150,13.923,150,20.884z"/>
	<path fill-rule="evenodd" d="M134.901,44.097c-0.007-0.142-0.02-0.281-0.02-0.422c-0.001-6.629-0.001-13.257-0.001-19.886
		c0-0.569,0.001-0.57,0.563-0.571c0.869-0.002,1.739,0.008,2.608-0.005c0.304-0.005,0.494,0.097,0.653,0.365
		c2.409,4.063,4.827,8.121,7.243,12.181c0.078,0.129,0.159,0.257,0.264,0.426c0.067-0.175,0.045-0.313,0.045-0.446
		c0.001-3.96,0.001-7.921,0.001-11.881c0-0.64,0-0.64,0.64-0.641c1.034-0.002,2.068-0.003,3.103-0.005c0,6.962,0,13.923,0,20.885
		c-1.2,0-2.399,0-3.599,0c-0.029-0.129-0.104-0.235-0.171-0.347c-0.751-1.262-1.503-2.523-2.255-3.786
		c-1.652-2.776-3.303-5.555-4.958-8.33c-0.072-0.121-0.118-0.271-0.307-0.384c0,4.319,0,8.583,0,12.847
		C137.441,44.097,136.171,44.097,134.901,44.097z"/>
	<path fill-rule="evenodd" d="M76.481,0c0.238,0.062,0.477,0.123,0.715,0.185c2.326,0.608,4.181,2.768,4.46,5.161
		c0.156,1.334-0.07,2.573-0.808,3.707c-0.284,0.436-0.626,0.821-1.007,1.175c-0.222,0.206-0.223,0.214,0.007,0.425
		c0.561,0.515,1.022,1.102,1.351,1.79c0.335,0.701,0.506,1.438,0.506,2.215c0,1.904,0.001,3.809,0,5.713
		c0,0.526-0.002,0.527-0.529,0.528c-0.917,0-1.834,0-2.751,0c-0.551,0-0.552-0.001-0.552-0.537c-0.001-1.845-0.004-3.69,0.001-5.536
		c0.001-0.763-0.271-1.393-0.846-1.899c-0.407-0.357-0.875-0.558-1.41-0.561c-1.658-0.009-3.315-0.005-4.973-0.002
		c-0.34,0-0.352,0.018-0.352,0.404c-0.001,2.104,0,4.208,0,6.312c0,0.482,0.003,0.964-0.001,1.446
		c-0.003,0.334-0.034,0.37-0.362,0.371c-1.035,0.004-2.069,0.004-3.104,0c-0.323-0.001-0.354-0.04-0.365-0.373
		c-0.001-0.047-0.001-0.094-0.001-0.141c0-6.735,0-13.471,0-20.206c0-0.059,0.001-0.118,0.002-0.176C69.802,0,73.142,0,76.481,0z
		 M73.192,3.816c0-0.001,0-0.002,0-0.003c-0.447,0-0.893,0-1.34,0c-0.411,0-0.823-0.004-1.234,0.002
		c-0.293,0.005-0.314,0.033-0.325,0.33c-0.001,0.047,0,0.094,0,0.141c0,1.257,0,2.515,0,3.772c0,0.457,0.002,0.458,0.474,0.458
		c0.388,0,0.775,0,1.163,0c1.187,0,2.374,0.009,3.561-0.003c1.31-0.012,2.334-1.003,2.375-2.307c0.041-1.349-1.114-2.381-2.206-2.39
		C74.837,3.811,74.014,3.816,73.192,3.816z"/>
	<path fill-rule="evenodd" d="M93.556,0c0.197,0.083,0.41,0.099,0.615,0.15c2.308,0.577,4.215,2.69,4.563,5.049
		c0.045,0.304,0.063,0.607,0.063,0.913c0,4.75,0,9.499,0,14.249c0,0.536-0.001,0.536-0.552,0.537c-0.918,0-1.834,0-2.751,0
		c-0.095,0-0.188-0.003-0.282-0.004c-0.177-0.001-0.254-0.097-0.255-0.266c-0.001-0.106-0.003-0.211-0.003-0.317
		c-0.001-1.54,0-3.08-0.001-4.621c0-0.105-0.001-0.211-0.008-0.317c-0.007-0.11-0.07-0.171-0.18-0.177
		c-0.095-0.005-0.188-0.006-0.282-0.006c-2.198,0-4.397,0-6.596,0c-0.023,0-0.047,0-0.07,0c-0.378,0.005-0.396,0.018-0.396,0.402
		c-0.002,1.517-0.001,3.033-0.001,4.55c0,0.105,0.001,0.211,0,0.317c-0.006,0.416-0.024,0.438-0.442,0.438
		c-0.999,0.002-1.999,0.002-2.998,0c-0.392-0.001-0.425-0.037-0.437-0.417c-0.002-0.059-0.001-0.118-0.001-0.176
		c0-4.656-0.003-9.311,0.003-13.966c0.001-0.9,0.126-1.785,0.511-2.61c0.865-1.855,2.268-3.082,4.263-3.604
		C88.466,0.083,88.621,0.074,88.758,0C90.357,0,91.957,0,93.556,0z M91.159,11.356c1.116,0,2.231,0.001,3.348,0
		c0.435,0,0.442-0.01,0.446-0.424c0-0.012,0-0.023,0-0.035c0-1.574-0.026-3.148,0.009-4.721c0.027-1.276-1.127-2.401-2.338-2.368
		c-0.962,0.026-1.926,0.005-2.889,0.006c-0.2,0-0.397,0.019-0.594,0.068c-0.875,0.219-1.736,1.167-1.726,2.198
		c0.018,1.609,0.004,3.218,0.004,4.828c0,0.07,0.004,0.141,0.006,0.211c0.004,0.16,0.091,0.232,0.246,0.234
		c0.094,0.001,0.188,0.004,0.281,0.004C89.021,11.356,90.091,11.356,91.159,11.356z"/>
	<path fill-rule="evenodd" d="M49.389,44.097c-0.007-0.152-0.02-0.306-0.02-0.457c-0.001-6.605-0.001-13.21-0.001-19.815
		c0-0.605,0-0.606,0.597-0.607c2.797,0,5.594,0.013,8.391-0.003c3.333-0.019,5.844,2.613,6.186,5.31
		c0.046,0.36,0.077,0.726,0.078,1.089c0.007,2.715,0.007,5.43,0.003,8.145c-0.004,2.543-1.152,4.424-3.327,5.699
		c-0.417,0.245-0.871,0.41-1.341,0.527c-0.136,0.033-0.271,0.075-0.406,0.113C56.162,44.097,52.775,44.097,49.389,44.097z
		 M53.212,33.71c0,2.081-0.001,4.161,0.001,6.242c0,0.359,0.019,0.382,0.338,0.383c1.622,0.002,3.245,0.006,4.867-0.003
		c0.428-0.003,0.841-0.103,1.205-0.346c0.721-0.482,1.129-1.131,1.126-2.028c-0.008-2.751,0.001-5.502,0.003-8.253
		c0-0.199-0.001-0.4-0.018-0.6c-0.078-0.969-1.016-1.967-1.984-1.992c-1.75-0.045-3.503-0.021-5.254-0.021
		c-0.23,0-0.265,0.048-0.281,0.27c-0.008,0.105-0.003,0.212-0.003,0.317C53.212,29.69,53.212,31.701,53.212,33.71z"/>
	<path fill-rule="evenodd" d="M132.996,0c0.004,1.164,0.011,2.327,0.01,3.491c0,0.264-0.048,0.302-0.311,0.318
		c-0.117,0.007-0.234,0.003-0.353,0.003c-3.386,0-6.771,0-10.158,0c-0.552,0-0.552,0.001-0.553,0.54c0,1.223,0,2.445,0,3.668
		c0,0.094,0.002,0.188,0.007,0.282c0.008,0.143,0.088,0.21,0.229,0.211c0.105,0,0.211,0.003,0.317,0.003c2.469,0,4.938,0,7.407,0
		c0.575,0,0.576,0.001,0.576,0.592c0.001,0.894,0.001,1.787,0.001,2.681c0,0.059,0.001,0.118-0.001,0.176
		c-0.014,0.347-0.051,0.388-0.39,0.393c-0.388,0.005-0.776,0.001-1.164,0.001c-2.128,0-4.256,0-6.384,0
		c-0.106,0-0.212-0.004-0.317,0.003c-0.226,0.015-0.266,0.05-0.276,0.275c-0.011,0.223-0.005,0.447-0.005,0.67c0,1.07,0,2.14,0,3.21
		c0,0.105,0.002,0.211,0.007,0.317c0.006,0.14,0.078,0.217,0.221,0.221c0.117,0.003,0.235,0.005,0.353,0.005
		c3.409,0,6.818,0,10.229,0c0.568,0,0.568,0.001,0.569,0.559c0,0.94,0.001,1.881-0.001,2.821c-0.001,0.439-0.017,0.456-0.459,0.456
		c-4.326,0.001-8.653,0-12.979,0c-0.482,0-0.964,0.004-1.446-0.002c-0.326-0.003-0.357-0.04-0.369-0.368
		c-0.002-0.047-0.001-0.094-0.001-0.141c0-6.749,0-13.497,0-20.245c0-0.047,0.002-0.094,0.002-0.141C122.836,0,127.916,0,132.996,0z
		"/>
	<path fill-rule="evenodd" d="M66.463,44.097c-0.001-5.762-0.002-11.522-0.003-17.283c0-0.987,0-1.976,0-2.963
		c0-0.094-0.002-0.188,0.002-0.281c0.015-0.294,0.058-0.335,0.362-0.351c0.07-0.004,0.141-0.002,0.211-0.002
		c4.703,0,9.405,0,14.108,0.001c0.559,0,0.561,0.003,0.562,0.577c0.001,0.904,0,1.81,0,2.715c0,0.106-0.003,0.212-0.006,0.317
		c-0.006,0.153-0.083,0.242-0.238,0.25c-0.129,0.007-0.259,0.01-0.388,0.01c-3.386,0.001-6.772,0.001-10.158,0
		c-0.701,0-0.62-0.014-0.622,0.64c-0.002,1.151,0,2.304,0,3.456c0,0.082-0.002,0.165,0.001,0.247
		c0.011,0.285,0.038,0.312,0.336,0.323c0.105,0.004,0.211,0.001,0.317,0.001c2.445,0,4.891,0,7.336,0
		c0.591,0,0.592,0.001,0.592,0.582c0.001,0.906,0.001,1.811,0,2.716c0,0.106-0.003,0.212-0.007,0.317
		c-0.007,0.172-0.101,0.255-0.27,0.259c-0.117,0.002-0.235,0.004-0.353,0.004c-2.48,0-4.961,0-7.442,0.001
		c-0.51,0-0.511,0.001-0.511,0.499c0,1.246,0,2.492,0,3.738c0,0.095,0.001,0.188,0.006,0.282c0.005,0.111,0.067,0.173,0.178,0.178
		c0.117,0.005,0.235,0.006,0.353,0.006c3.444,0.001,6.89,0.001,10.334,0.001c0.54,0,0.541,0,0.541,0.55
		c0,1.069-0.001,2.14-0.002,3.21C76.623,44.097,71.542,44.097,66.463,44.097z"/>
	<path fill-rule="evenodd" d="M122.836,44.097c-0.381-0.118-0.777-0.187-1.145-0.35c-2.076-0.923-3.396-2.464-3.841-4.714
		c-0.068-0.345-0.098-0.697-0.098-1.052c0.001-2.856,0.002-5.714,0-8.57c-0.001-3.203,2.521-5.749,5.304-6.123
		c0.325-0.044,0.652-0.076,0.983-0.073c0.894,0.007,1.788-0.011,2.681,0.004c2.658,0.044,4.547,1.318,5.737,3.655
		c0.429,0.841,0.573,1.762,0.55,2.704c-0.008,0.302-0.048,0.347-0.354,0.348c-1.046,0.004-2.092,0.005-3.139,0
		c-0.299-0.002-0.329-0.043-0.343-0.359c-0.008-0.211-0.012-0.421-0.059-0.63c-0.172-0.766-0.634-1.296-1.316-1.651
		c-0.266-0.139-0.552-0.196-0.851-0.196c-1.034,0-2.069,0.015-3.104-0.004c-1.168-0.02-2.234,1.167-2.223,2.252
		c0.032,2.892,0.034,5.784-0.002,8.676c-0.013,1.021,0.88,2.288,2.283,2.318c0.987,0.021,1.976,0.024,2.963-0.002
		c1.273-0.034,2.264-1.037,2.3-2.309c0.019-0.681,0.009-1.363,0.006-2.045c-0.002-0.308-0.034-0.339-0.352-0.341
		c-0.682-0.006-1.363-0.001-2.046-0.004c-0.438-0.001-0.473-0.03-0.474-0.45c-0.003-0.999-0.004-1.999,0-2.998
		c0.002-0.386,0.041-0.426,0.427-0.427c1.951-0.003,3.903-0.003,5.854,0c0.389,0.001,0.427,0.042,0.427,0.426
		c0.002,1.987,0.022,3.975-0.005,5.961c-0.025,1.778-0.768,3.247-2.072,4.438c-0.778,0.711-1.68,1.199-2.712,1.436
		c-0.079,0.019-0.154,0.053-0.231,0.08C126.27,44.097,124.553,44.097,122.836,44.097z"/>
	<path fill-rule="evenodd" d="M88.617,44.097c-0.192-0.053-0.385-0.104-0.577-0.157c-2.135-0.598-4.149-2.632-4.431-5.162
		c-0.035-0.314-0.058-0.633-0.063-0.949c-0.004-0.304,0.052-0.361,0.344-0.362c1.058-0.007,2.116-0.007,3.175-0.001
		c0.296,0.002,0.34,0.057,0.353,0.356c0.011,0.258-0.006,0.517,0.065,0.771c0.279,0.997,1.171,1.712,2.234,1.737
		c0.976,0.023,1.952,0.021,2.928,0.001c0.96-0.02,1.661-0.506,2.078-1.347c0.395-0.795,0.336-1.605-0.183-2.339
		c-0.468-0.663-1.112-1.024-1.948-1.015c-0.929,0.011-1.858,0.019-2.787-0.001c-2.581-0.053-4.472-1.269-5.631-3.539
		c-1.123-2.199-0.742-4.996,1.056-6.873c0.974-1.017,2.126-1.697,3.529-1.914c0.336-0.052,0.676-0.086,1.018-0.086
		c0.94,0.001,1.881,0.001,2.822,0c3.305-0.001,5.629,2.535,6.088,4.97c0.083,0.441,0.12,0.884,0.109,1.332
		c-0.008,0.38-0.026,0.406-0.398,0.408c-0.67,0.004-1.34,0.001-2.01,0.001c-0.341,0-0.682,0.003-1.023-0.001
		c-0.376-0.004-0.402-0.031-0.411-0.397c-0.005-0.199-0.003-0.397-0.04-0.596c-0.17-0.921-1.148-1.888-2.279-1.853
		c-0.975,0.031-1.952,0-2.928,0.009c-1.037,0.01-1.95,0.699-2.215,1.696c-0.463,1.742,0.99,3.021,2.197,2.974
		c0.856-0.033,1.717-0.011,2.574-0.004c0.459,0.004,0.916,0.033,1.369,0.105c2.701,0.431,4.895,2.769,5.148,5.484
		c0.334,3.58-2.21,6.011-4.575,6.624c-0.147,0.038-0.292,0.084-0.438,0.127C92.051,44.097,90.334,44.097,88.617,44.097z"/>
	<path fill-rule="evenodd" d="M64.628,0c-0.002,0.411-0.019,0.824,0,1.234c0.014,0.318-0.09,0.551-0.318,0.777
		c-2.7,2.688-5.392,5.383-8.085,8.078c-0.355,0.356-0.381,0.288,0.001,0.67c2.479,2.477,4.958,4.952,7.438,7.428
		c0.241,0.241,0.48,0.484,0.73,0.716c0.157,0.146,0.235,0.312,0.23,0.528c-0.008,0.376,0.004,0.752-0.006,1.128
		c-0.008,0.282-0.059,0.333-0.336,0.334c-1,0.005-1.999,0.001-2.998,0.003c-0.165,0-0.296-0.055-0.407-0.174
		c-0.071-0.078-0.149-0.149-0.224-0.225c-2.361-2.361-4.723-4.722-7.083-7.084c-0.091-0.09-0.166-0.197-0.266-0.318
		c-0.127,0.165-0.091,0.296-0.091,0.415c-0.002,2.27-0.001,4.539-0.001,6.808c0,0.579-0.001,0.579-0.584,0.579
		c-0.906,0-1.811,0-2.716,0c-0.106,0-0.211-0.002-0.317-0.007c-0.139-0.007-0.216-0.079-0.22-0.221
		c-0.003-0.094-0.005-0.188-0.005-0.282c0-6.667,0-13.333,0-20c0-0.129,0.013-0.258,0.02-0.387c1.27,0,2.54,0,3.81,0
		c0.004,0.164,0.013,0.328,0.013,0.492c0,2.254,0,4.509,0.001,6.763c0,0.136-0.023,0.277,0.037,0.426
		c0.159-0.05,0.238-0.171,0.334-0.266C55.943,5.058,58.3,2.7,60.658,0.342C60.765,0.234,60.884,0.136,60.959,0
		C62.183,0,63.405,0,64.628,0z"/>
	<path fill-rule="evenodd" d="M115.922,0c-0.002,0.399-0.02,0.8,0,1.199c0.017,0.342-0.095,0.592-0.342,0.838
		c-2.693,2.677-5.376,5.365-8.06,8.051c-0.359,0.359-0.379,0.284,0.006,0.668c2.687,2.684,5.371,5.37,8.065,8.045
		c0.236,0.236,0.353,0.475,0.33,0.807c-0.022,0.316,0.001,0.635-0.011,0.952c-0.01,0.281-0.059,0.333-0.336,0.334
		c-1,0.005-1.999,0.001-2.999,0.003c-0.149,0-0.273-0.049-0.377-0.158c-0.081-0.085-0.166-0.166-0.25-0.249
		c-2.36-2.361-4.721-4.722-7.082-7.083c-0.091-0.09-0.186-0.177-0.293-0.279c-0.105,0.126-0.066,0.258-0.066,0.375
		c-0.003,2.258-0.003,4.515-0.002,6.772c0,0.646,0.024,0.623-0.612,0.622c-0.905-0.001-1.811,0-2.716-0.001
		c-0.105,0-0.211-0.003-0.316-0.012c-0.108-0.01-0.172-0.076-0.181-0.183c-0.01-0.105-0.012-0.211-0.012-0.317
		c-0.001-6.677-0.001-13.355,0-20.033c0-0.117,0.009-0.235,0.013-0.352c1.271,0,2.54,0,3.811,0c0.004,0.152,0.013,0.305,0.013,0.457
		c0.001,2.302,0,4.604,0.002,6.905c0,0.122-0.029,0.252,0.036,0.373c0.139-0.05,0.204-0.152,0.285-0.234
		c0.898-0.895,1.796-1.792,2.691-2.689c1.602-1.604,3.203-3.208,4.804-4.812C113.522,0,114.723,0,115.922,0z"/>
	<path fill-rule="evenodd" d="M100.682,44.097c-0.004-1.141-0.011-2.28-0.01-3.421c0-0.309,0.04-0.338,0.394-0.338
		c1.599-0.002,3.197-0.002,4.796-0.001c0.545,0,0.516,0.02,0.516-0.523c-0.001-4.067,0-8.134-0.001-12.201
		c0-0.523,0-0.524-0.523-0.524c-1.54-0.001-3.08,0-4.62-0.001c-0.563,0-0.563-0.002-0.563-0.573c-0.001-0.94-0.001-1.881,0-2.821
		c0.001-0.447,0.026-0.474,0.485-0.475c1.986-0.002,3.974-0.001,5.96-0.001c2.738,0,5.478,0,8.216,0
		c0.585,0,0.586,0.002,0.587,0.588c0,0.905,0,1.811-0.001,2.715c0,0.106-0.003,0.212-0.008,0.317
		c-0.008,0.155-0.093,0.235-0.246,0.242c-0.116,0.006-0.234,0.008-0.352,0.008c-1.505,0.001-3.01,0.001-4.514,0.001
		c-0.095,0-0.188-0.004-0.282,0.002c-0.247,0.017-0.285,0.054-0.302,0.292c-0.007,0.094-0.004,0.188-0.004,0.282
		c0,4.043,0,8.087,0,12.131c0,0.541,0.001,0.542,0.54,0.542c1.528,0,3.056,0,4.584,0c0.105,0,0.212,0.003,0.317,0.003
		c0.156-0.001,0.241,0.078,0.253,0.23c0.01,0.117,0.013,0.234,0.013,0.353c0.003,1.058,0.004,2.115,0.006,3.174
		C110.842,44.097,105.762,44.097,100.682,44.097z"/>
	<path fill-rule="evenodd" d="M30.789,20.225c0.694-0.046,1.287,0.021,1.878,0.11c0.069,0.01,0.14,0.023,0.206,0.047
		c0.141,0.05,0.149,0.122,0.032,0.226c-0.018,0.016-0.037,0.029-0.057,0.042c-1.051,0.673-2.137,1.275-3.367,1.561
		c-0.763,0.178-1.531,0.227-2.299,0.029c-0.122-0.031-0.289-0.025-0.335-0.156c-0.058-0.16,0.107-0.244,0.203-0.335
		c0.834-0.79,1.828-1.257,2.958-1.444C30.298,20.257,30.588,20.217,30.789,20.225z"/>
	<path fill-rule="evenodd" d="M27.654,26.692c0.071-0.106,0.185-0.095,0.286-0.099c1.459-0.053,2.912-0.021,4.337,0.342
		c0.664,0.169,1.303,0.396,1.867,0.798c0.144,0.103,0.284,0.21,0.396,0.347c0.148,0.182,0.117,0.271-0.111,0.296
		c-0.256,0.027-0.516,0.06-0.772,0.049c-1.63-0.065-3.219-0.34-4.737-0.96c-0.381-0.155-0.749-0.338-1.089-0.572
		C27.758,26.841,27.662,26.804,27.654,26.692z"/>
	<path fill-rule="evenodd" d="M24.322,24.702c0.008-0.305,0.149-0.564,0.38-0.783c0.164-0.155,0.357-0.264,0.546-0.382
		c0.229-0.143,0.451-0.292,0.621-0.51c0.127-0.164,0.195-0.15,0.306,0.031c0.202,0.329,0.173,0.725-0.083,1.05
		c-0.237,0.3-0.548,0.511-0.883,0.683c-0.187,0.096-0.384,0.177-0.583,0.246c-0.238,0.082-0.293,0.037-0.304-0.211
		C24.321,24.791,24.322,24.755,24.322,24.702z"/>
	<path fill-rule="evenodd" d="M20.394,25.393c-0.174-0.014-0.354-0.066-0.52-0.156c-0.369-0.197-0.673-0.468-0.886-0.831
		c-0.137-0.234-0.125-0.4,0.022-0.546c0.16-0.159,0.351-0.181,0.576-0.035c0.176,0.115,0.334,0.257,0.5,0.387
		c0.257,0.199,0.532,0.34,0.873,0.29c0.103-0.016,0.19,0.001,0.194,0.135C21.165,25.006,20.783,25.395,20.394,25.393z"/>
</g>
</svg>
